<svg xmlns="http://www.w3.org/2000/svg" viewBox="0 0 640 420">
  <defs>
    <linearGradient id="bg" x1="0" x2="0" y1="0" y2="1">
      <stop offset="0%" stop-color="#7fd4e4" />
      <stop offset="100%" stop-color="#0a425e" />
    </linearGradient>
  </defs>
  <rect width="640" height="420" fill="url(#bg)" />
  <ellipse cx="320" cy="360" rx="270" ry="38" fill="#b18e60" opacity="0.75" />
  <g transform="translate(100 78)">
    <path d="M85 160C150 60 285 32 435 154C342 205 186 215 85 160Z" fill="#5e503f" />
    <path d="M86 160C168 214 326 214 434 154C418 242 332 286 259 286C178 286 111 244 86 160Z" fill="#6f5d48" />
    <path d="M258 286C272 296 281 307 284 322C287 336 286 350 280 362" fill="none" stroke="#403126" stroke-width="10" stroke-linecap="round" />
    <circle cx="196" cy="161" r="6" fill="#0d1d25" />
  </g>
</svg>
