<svg xmlns="http://www.w3.org/2000/svg" viewBox="0 0 640 420">
  <defs>
    <linearGradient id="bg" x1="0" x2="0" y1="0" y2="1">
      <stop offset="0%" stop-color="#98d9e8" />
      <stop offset="100%" stop-color="#0b4a67" />
    </linearGradient>
  </defs>
  <rect width="640" height="420" fill="url(#bg)" />
  <ellipse cx="320" cy="364" rx="280" ry="40" fill="#b89663" opacity="0.75" />
  <g transform="translate(44 122)">
    <path d="M48 132C118 80 206 60 320 68C418 76 500 106 548 130C498 162 412 194 302 198C190 202 96 180 48 132Z" fill="#83949b" />
    <polygon points="510,128 592,82 592,176" fill="#75878d" />
    <polygon points="298,76 346,28 390,84" fill="#7c8b92" />
    <polygon points="274,184 332,226 374,176" fill="#73848a" />
    <ellipse cx="74" cy="132" rx="42" ry="24" fill="#8d9ea4" />
    <circle cx="62" cy="126" r="5" fill="#11222b" />
    <g fill="#d9e5e8" opacity="0.78">
      <rect x="120" y="118" width="24" height="8" rx="4" />
      <rect x="176" y="108" width="26" height="8" rx="4" />
      <rect x="236" y="104" width="28" height="8" rx="4" />
      <rect x="302" y="106" width="30" height="8" rx="4" />
      <rect x="368" y="116" width="26" height="8" rx="4" />
      <rect x="428" y="130" width="24" height="8" rx="4" />
    </g>
  </g>
</svg>
